<?xml version="1.0" encoding="UTF-8"?>
<svg id="Layer_1" data-name="Layer 1" xmlns="http://www.w3.org/2000/svg" viewBox="0 0 130.63 109.25">
  <defs>
    <style>
      .cls-1 {
        fill: #000000;
        stroke: #000000;
        stroke-miterlimit: 10;
        stroke-width: .25px;
      }
    </style>
  </defs>
  <path class="cls-1" d="M26.35,43.31c11.57,6.09,16.83,11.22,16.83,11.22l6.55-4.35c-5.58-6.36-13.65-10.28-13.65-10.28-13.56-7.38-16.88-10.24-16.88-10.24,0,0-6.93-5.74-6.55-12.68.32-5.87,2.18-7.59,4.89-10.19,2.94-2.81,11.76-5.67,19.6-2.63,7.84,3.04,7.56,8.21,7.56,8.21.37,1.66-1.24,3.27-1.24,3.27-2.31,3.69,1.06,5.49,1.06,5.49,5.44,2.77,7.19-2.44,7.19-2.44,1.61-5.39-1.89-9.45-1.89-9.45,0,0-5.44-8.85-19.83-8.53-14.39.32-18.12,5.36-20.93,10.01-2.74,4.52-4.43,14.85,1.75,21.4,6.18,6.55,15.54,11.2,15.54,11.2Z"/>
  <path class="cls-1" d="M69.54,27.92s0-7.56,3.1-17.18c1.94-6,7.65-8.81,7.65-8.81,0,0,5.2-2.92-.26-1.34-5.46,1.58-9.04,5.46-9.04,5.46-8.27,8.76-8.3,18.95-8.3,18.95-.54,4.73-.53,17.89-.53,17.89l7.15-5.92.22-9.05Z"/>
  <path class="cls-1" d="M128.61,72.62c-1.2-1.97-2.46-5.78-8.08-9.97-.27-.2-.33-.58-.13-.85l1.86-2.5s.05-.08.07-.12c.26-.6,2.16-5.29-2.59-3.24-.04.02-.08.04-.11.06-.37.26-2.64,1.89-3.71,3.08-.21.23-.56.28-.81.09-1.25-.93-4.63-3.58-5.48-5.87,0,0-1.2-2.27-1.15-4.03.05-1.75-1.06-2.12-1.11.41s2.03,6.18,2.03,6.18c0,0,1.09,1.89,4.84,4.47,0,0,.58.23-.24,1.04-.82.81-8.89,11.04-8.89,11.04l-2.09,2.75c-.16.2-.16.49-.02.7l1.19,1.79c.21.32.67.36.93.09l13.64-13.95s.24-.4,1.06.37c.93.86,7.68,5.29,6.87,15.04,0,.03,0,.05-.01.08-.17.8-2.88,12.84-14.49,8.54-.02,0-.03-.01-.04-.02-.44-.2-7.64-3.57-13.58-14.7,0,0-9.54-16.66-11.02-19.81,0,0-5.44-10.44-10.88-13.29l-1.48-.74s-.74.37,1.66-2.21c2.33-2.51,7.09-8.22,7.36-8.56,0-.01.02-.02.02-.03.35-.49,8.83-12.33,17.1-18.2,7.87-5.59,13.42-.75,14.13-.07.06.05.12.09.19.12.88.34,6.49,2.32,6.66-3.3,0-.04,0-.09,0-.13-.14-.75-1.69-7.53-12.76-4.6-.03,0-.06.01-.09.02-.66.06-9.1,1.12-22.55,18.9,0,0-9.33,11.62-15.95,17.31-5.91,5.08-16.68,12.37-26.65,17.81,0,0-19.1,10.11-21.3,21.17,0,.03-.02.06-.03.09-.3.74-4.11,10.78,5.97,15.36,0,0,1.58.81-.43.66-2.01-.15-20.74.17-25.17-17.99-4.41-18.11,8.22-24.4,15.33-25.9.05-.01.09-.01.14-.01l1.73.04s3.57.02-1.65-1.47c-.07-.02-.14-.03-.2-.02-.9.06-7.42.62-11.71,5.06,0,0-7.14,6.32-6.83,15.48.31,9.15,3,20.19,18.43,25.58.12.04.33.12.35.12,7.28,2.19,18.03,3.27,29.05-3.08,10.88-6.28,14.88-11.62,18.51-21.64,3.6-9.93,3.2-19.55,3.08-20.71,0-.02,0-.04,0-.06v-4.14s-.14-4.15,3.92.69c4.06,4.84,7.75,11.94,10.42,16.97,2.67,5.03,8.85,15.95,11.99,19.32,0,0,.91.84.51,1.35-.4.51-4.96,6.05-4.96,6.05,0,0-.25.62-1.2-.08-.95-.7-4.25-2.95-4.25-2.95,0,0-3.54-2.45-6.44-3-2.63-.5-6.69-.51-8.67.48,0,0-4.89,1.52-6.32,5.72-1.29,3.78,0,7.72,0,7.72,0,0,.76,2.11,2.89,3.37,2.03,1.2,4.78,1.11,4.78,1.11,0,0,1.93.16,3.94-1.68,1.17-1.07,1.77-2.03,1.72-4.94-.02-1.22-.64-2.18-1.26-2.84-.82-.87-2-1.34-3.18-1.12-.52.1-1.04.33-1.42.81,0,0-.34.38-.68,1.18-.34.8.23.57.23.57,0,0,.71-1.4,2.34-1.6,1.63-.2,2.57,2.32,2.57,2.32,0,0,.79,1.96-.8,3.86-.01.01-.02.02-.03.03-.22.23-2.67,2.72-6.16,1.15,0,0-3.29-1.21-3.73-4.43s-.05-5.66,2.37-7.53c2.41-1.88,3.54-2.49,7.24-2.51s6.44,1.37,6.44,1.37c0,0,5,2.46,7.52,4.27,0,0,.7.4.43.7-.26.3-6.06,7.58-6.06,7.58l-6.92,8.67-.51.61s-.02.03-.03.04c-.14.2-1.16,1.71.25.63.02-.02.04-.03.06-.05l1.96-1.94,8.24-8.84,4.4-5.07s.48-.55,1.12-.02,5.29,4.53,10.41,6.37c0,0,8.39,3.55,16.46.32,0,0,5.93-1.71,9.49-9.04,3.56-7.33,1.24-15.82,0-17.84ZM119.2,61.11c-.19.22-.51.28-.76.14-.17-.09-.35-.06-.87.3-.44.31-.41.62-.29.84.14.25.09.55-.11.74-.36.33-1.01.92-2.14,1.94-2.25,2.02-2.27,1.19-1.38-.47.89-1.66,2.65-3.53,2.65-3.53,0,0,1.74-2.04,2.92-2.94,1.18-.9,1.84.01,1.33,1.05-.33.66-.94,1.45-1.34,1.93ZM41.96,89.54s-6.5,4.1-12.77,1.75c0,0-7.56-2.58-4.2-13.19,0,0,2.65-7.5,10.69-13.02l.15-.12c.59-.5,6.91-5.04,9.87-6.64.26-.14.59-.07.77.17,1.19,1.63,5.38,7.87,4.62,14.53-.88,7.75-3.23,13.02-9.13,16.51ZM60.82,66.95c-1.98,6.92-4.7,14.16-10.28,19,0,0-1.29.8,1.18-1.89.01-.02.03-.03.04-.05.24-.33,2.92-4.05,4.45-9.59,0,0,1.74-5.38.55-11.41,0-.02,0-.04-.01-.06-.12-.41-1.59-5.49-3.31-7.97-.2-.29-.11-.68.19-.86l7.62-4.57c.39-.24.9.03.91.49.11,2.88.28,11.25-1.34,16.9ZM128.28,82.65c-.65,4.52-.68,5.22-2.4,8.21-.65,1.13-2.08,5-9.64,7.47-6.83,2.23-16.07-2.58-17.01-3.11-.76-.42-4.44-2.9-5.89-3.87-.31-.21-.36-.64-.1-.91l4.61-4.95c.24-.26.66-.26.89,0,1.08,1.22,4.29,4.31,10.32,5.99,7.63,2.12,12.84-1.66,12.84-1.66,0,0,4.27-2.77,5.69-7.17,0,0,1.34-4.52.69,0Z"/>
</svg>